<?xml version="1.0" encoding="utf-8"?>
<!DOCTYPE svg PUBLIC "-//W3C//DTD SVG 1.1//EN" "http://www.w3.org/Graphics/SVG/1.1/DTD/svg11.dtd">
<svg version="1.1" id="icon-analytics" xmlns="http://www.w3.org/2000/svg" xmlns:xlink="http://www.w3.org/1999/xlink" x="0px" y="0px"
	 width="50px" height="50px" viewBox="0 0 50 50" enable-background="new 0 0 50 50" xml:space="preserve">
<path fill-rule="evenodd" clip-rule="evenodd" fill="#F3550D" d="M42.05,15.936C41.204,16.593,40.154,17,39,17
	c-0.447,0-0.872-0.078-1.284-0.188l-8.902,13.989C29.543,31.671,30,32.776,30,34c0,2.762-2.238,5-5,5c-2.761,0-5-2.238-5-5
	c0-0.365,0.044-0.719,0.119-1.062l-5.735-3.276C13.492,30.485,12.31,31,11,31c-0.917,0-1.766-0.265-2.505-0.696L2,36.21V44
	c0,2.209,1.791,4,4,4h38c2.209,0,4-1.791,4-4V20.056L42.05,15.936z"/>
<path fill-rule="evenodd" clip-rule="evenodd" fill="#F99A00" d="M44,2H6C3.791,2,2,3.791,2,6v26.154l4.471-4.064
	C6.176,27.452,6,26.749,6,26c0-2.761,2.239-5,5-5s5,2.239,5,5c0,0.365-0.044,0.719-0.118,1.062l5.735,3.277
	C22.508,29.515,23.69,29,25,29c0.447,0,0.872,0.077,1.284,0.188l8.902-13.989C34.457,14.33,34,13.224,34,12c0-2.761,2.238-5,5-5
	s5,2.239,5,5c0,0.515-0.101,1.001-0.244,1.468L48,16.407V6C48,3.791,46.209,2,44,2z"/>
<linearGradient id="SVGID_1_" gradientUnits="userSpaceOnUse" x1="11.5977" y1="24.3716" x2="31.5141" y2="43.3116">
	<stop  offset="0" style="stop-color:#BA330A"/>
	<stop  offset="0.7616" style="stop-color:#D9460C;stop-opacity:0.6"/>
	<stop  offset="1" style="stop-color:#F3550D;stop-opacity:0"/>
</linearGradient>
<path opacity="0.4" fill-rule="evenodd" clip-rule="evenodd" fill="url(#SVGID_1_)" d="M46.07,48L28.836,30.766l-0.024,0.039
	C29.541,31.673,30,32.777,30,34c0,1.138-0.395,2.174-1.034,3.014c-0.19,0.251-0.405,0.483-0.639,0.694
	c-0.097,0.086-0.196,0.168-0.3,0.247c-0.139,0.107-0.282,0.207-0.433,0.3c-0.159,0.098-0.323,0.188-0.494,0.269
	c-0.084,0.04-0.169,0.08-0.256,0.115c-0.245,0.098-0.498,0.178-0.761,0.236c-0.062,0.014-0.126,0.023-0.189,0.035
	C25.604,38.963,25.307,39,25,39c-0.342,0-0.675-0.035-0.998-0.101c-0.286-0.059-0.56-0.149-0.826-0.254
	c-0.032-0.013-0.067-0.018-0.099-0.031c-0.591-0.247-1.124-0.605-1.575-1.047l0,0C20.577,36.66,20,35.398,20,34
	c0-0.365,0.044-0.719,0.119-1.062l-5.735-3.277C13.492,30.485,12.31,31,11,31c-0.917,0-1.764-0.266-2.501-0.699l-0.141,0.128
	L14.5,36.57L24.93,47l1,1H40.07l-0.298-0.298L46.07,48z"/>
<linearGradient id="SVGID_2_" gradientUnits="userSpaceOnUse" x1="26.874" y1="35.8848" x2="27.999" y2="46.8848">
	<stop  offset="0" style="stop-color:#BA330A"/>
	<stop  offset="0.7616" style="stop-color:#D9460C;stop-opacity:0.6"/>
	<stop  offset="1" style="stop-color:#F3550D;stop-opacity:0"/>
</linearGradient>
<path opacity="0.4" fill-rule="evenodd" clip-rule="evenodd" fill="url(#SVGID_2_)" d="M46.07,48L28.836,30.766l-0.024,0.039
	C29.541,31.673,30,32.777,30,34c0,1.138-0.395,2.174-1.034,3.014c-0.19,0.251-0.405,0.483-0.639,0.694
	c-0.097,0.086-0.196,0.168-0.3,0.247c-0.139,0.107-0.282,0.207-0.433,0.3c-0.159,0.098-0.323,0.188-0.494,0.269
	c-0.084,0.04-0.169,0.08-0.256,0.115c-0.245,0.098-0.498,0.178-0.761,0.236c-0.062,0.014-0.126,0.023-0.189,0.035
	C25.604,38.963,25.307,39,25,39c-0.342,0-0.675-0.035-0.998-0.101c-0.286-0.059-0.56-0.149-0.826-0.254
	c-0.032-0.013-0.067-0.018-0.099-0.031c-0.591-0.247-1.124-0.605-1.575-1.047l0,0C20.577,36.66,20,35.398,20,34
	c0-0.365,0.044-0.719,0.119-1.062l-5.735-3.277C13.492,30.485,12.31,31,11,31c-0.917,0-1.764-0.266-2.501-0.699l-0.141,0.128
	L14.5,36.57L24.93,47l1,1H40.07l-0.298-0.298L46.07,48z"/>
<linearGradient id="SVGID_3_" gradientUnits="userSpaceOnUse" x1="37.6963" y1="21.542" x2="48" y2="21.542">
	<stop  offset="0" style="stop-color:#BA330A"/>
	<stop  offset="0.7616" style="stop-color:#D9460C;stop-opacity:0.6"/>
	<stop  offset="1" style="stop-color:#F3550D;stop-opacity:0"/>
</linearGradient>
<path opacity="0.6" fill-rule="evenodd" clip-rule="evenodd" fill="url(#SVGID_3_)" d="M48,27.147v-7.092l-5.95-4.12
	C41.204,16.593,40.154,17,39,17c-0.447,0-0.872-0.078-1.283-0.188l-0.021,0.032L48,27.147z"/>
</svg>
